# xmcd
#
# Track frame offsets: 
#        150
#        10905
#        23481
#        33869
#        45796
#        56036
#        68653
#        79938
#        89933
#        100114
#        114750
#        122817
#        135239
#        147916
#        159391
#        174349
#        184971
#        195585
#        205938
#        217872
#        229529
#        241317
#        253092
#        264378
#        272933
#        283457
#        297744
#        305474
#        314890
#
# Disc length: 4378 seconds
#
# Revision: 0
# Processed by: cddbd v1.5.2PL0 Copyright (c) Steve Scherf et al.
# Submitted via: ExactAudioCopy v1.3
#
DISCID=a411181d
DTITLE=Various Artist - Mighty Instrumentals R&B-Style 1959 [CD1]
DYEAR=1959
DGENRE=R&B
TTITLE0=Floyd Dixon - Let's Go Smitty
TTITLE1=Bo Diddley - Mumblin' Guitar
TTITLE2=Tommy Ridgley - Real Gone Jam
TTITLE3=The Gondoliers - Knocked Out
TTITLE4=The Carter Bros - Pacoima Stomp
TTITLE5=Gus Jenkins - Cutting Out
TTITLE6=Paul Gayten - Hot Cross Buns
TTITLE7=Mary Lou Williams - Chunk-A-Lunk Jug (pt. 1)
TTITLE8=Mary Lou Williams - Chunk-A-Lunk Jug (pt. 2)
TTITLE9=James Brown - Mashed Potatoes
TTITLE10=Nat Kendrick - Mashed Potatoes (pt. 2)
TTITLE11=The Swinging Earls - Yum Yum
TTITLE12=Garland Davis - Sweet Meats
TTITLE13=Herb Hardesty - Perdido Street
TTITLE14=Mac Rebennack - Storm Warning
TTITLE15=Royal Earl - Royal Earl Shuffle
TTITLE16=Spot Barnett - Boney Shuffle
TTITLE17=King Curtis - Soul Groove (pt. 1)
TTITLE18=King Curtis - Soul Groove (pt. 2)
TTITLE19=Lefty Bates - Rock Alley
TTITLE20=The Bim Bam Boos - Can't Sit Down
TTITLE21=Sam Price - Boogie Cha Cha
TTITLE22=Cozy Cole - Cozy's Mambo
TTITLE23=Ernie Freeman - Live It Up
TTITLE24=Doc Starkes - Talk to me Baby
TTITLE25=Buddy Johnson - Down Yunder
TTITLE26=Jimmy Nolen - Swinging Peter Gunn (pt. 1)
TTITLE27=Jimmy Nolen - Swinging Peter Gunn (pt. 2)
TTITLE28=Gene Redd - Zeen Beat
EXTD=
EXTT0=
EXTT1=
EXTT2=
EXTT3=
EXTT4=
EXTT5=
EXTT6=
EXTT7=
EXTT8=
EXTT9=
EXTT10=
EXTT11=
EXTT12=
EXTT13=
EXTT14=
EXTT15=
EXTT16=
EXTT17=
EXTT18=
EXTT19=
EXTT20=
EXTT21=
EXTT22=
EXTT23=
EXTT24=
EXTT25=
EXTT26=
EXTT27=
EXTT28=
PLAYORDER=
